<?xml version="1.0" encoding="UTF-8"?>
<svg width="134px" height="23px" viewBox="0 0 134 23" version="1.1" xmlns="http://www.w3.org/2000/svg" xmlns:xlink="http://www.w3.org/1999/xlink">
    <!-- Generator: Sketch 47.1 (45422) - http://www.bohemiancoding.com/sketch -->
    <title>RocketDAO</title>
    <desc>Created with Sketch.</desc>
    <defs>
        <polygon id="path-1" points="133.141 8.4863 133.141 19.7173 129.3981 19.7173 129.3981 8.4863 133.141 8.4863"></polygon>
    </defs>
    <g id="Page-1" stroke="none" stroke-width="1" fill="none" fill-rule="evenodd">
        <g id="User--Profile-Investor-Copy" transform="translate(-169.000000, -26.000000)">
            <g id="MENU">
                <g id="Group-5" transform="translate(164.000000, 25.000000)">
                    <g id="Logo_B_rocket">
                        <g id="Page-1" transform="translate(5.000000, 0.000000)">
                            <path d="M2.8821,10.786 L2.8821,3.984 L6.0521,3.984 C8.1561,3.984 9.4821,4.82 9.4821,7.097 L9.4821,7.385 C9.4821,9.806 8.1561,10.786 6.0521,10.786 L2.8821,10.786 Z M12.3631,7.673 L12.3631,6.808 C12.3631,3.235 9.8271,1.333 6.3401,1.333 L0.0001,1.333 L0.0001,22.947 L2.8821,22.947 L2.8821,12.37 L9.5691,22.947 L13.0261,22.947 L6.6291,13.178 C9.8271,13.005 12.3631,11.246 12.3631,7.673 L12.3631,7.673 Z" id="Fill-1" fill="#000000"></path>
                            <path d="M21.1039,20.5837 C18.5959,20.5837 16.6949,18.6537 16.6949,15.7427 C16.6949,12.8327 18.5959,10.9007 21.1039,10.9007 C23.6119,10.9007 25.5139,12.8327 25.5139,15.7427 C25.5139,18.6537 23.6119,20.5837 21.1039,20.5837 M21.1039,8.2497 C16.9249,8.2497 13.8129,11.3337 13.8129,15.7427 C13.8129,20.1517 16.9249,23.2347 21.1039,23.2347 C25.2829,23.2347 28.3949,20.1517 28.3949,15.7427 C28.3949,11.3337 25.2829,8.2497 21.1039,8.2497" id="Fill-3" fill="#000000"></path>
                            <path d="M37.5114,20.5834 C35.0614,20.5834 33.2174,18.6534 33.2174,15.7424 C33.2174,12.8324 35.0614,10.9004 37.5114,10.9004 C39.5864,10.9004 41.3434,12.0824 41.6324,14.2724 L44.6294,14.2724 C44.2834,10.6704 41.3154,8.2494 37.5114,8.2494 C33.3904,8.2494 30.3354,11.3334 30.3354,15.7424 C30.3354,20.1514 33.3904,23.2354 37.5114,23.2354 C41.4304,23.2354 44.4564,20.6994 44.6864,16.8944 L41.6904,16.8944 C41.4014,19.2874 39.6154,20.5834 37.5114,20.5834" id="Fill-5" fill="#000000"></path>
                            <polygon id="Fill-7" fill="#000000" points="60.4108 8.5373 56.5778 8.5373 50.3818 14.9353 50.3818 1.3333 47.4998 1.3333 47.4998 22.9473 50.3818 22.9473 50.3818 15.3673 57.2698 22.9473 60.9298 22.9473 53.6378 15.1083"></polygon>
                            <path d="M63.8917,14.6473 C64.2367,12.2263 65.7937,10.7863 68.1287,10.7863 C70.4337,10.7863 72.0177,12.2263 72.3647,14.6473 L63.8917,14.6473 Z M68.1287,8.2493 C64.0357,8.2493 61.0387,11.3333 61.0387,15.7423 C61.0387,20.1513 64.0357,23.2353 68.1287,23.2353 C71.4427,23.2353 73.9497,21.5923 74.8427,18.6243 L71.7307,18.6243 C71.1537,19.9213 70.0017,20.6993 68.2427,20.6993 C65.8217,20.6993 64.2087,19.2293 63.8627,16.7223 L75.1597,16.7223 C75.1887,16.4053 75.2177,16.0883 75.2177,15.7423 C75.2177,11.3333 72.2197,8.2493 68.1287,8.2493 L68.1287,8.2493 Z" id="Fill-9" fill="#000000"></path>
                            <path d="M81.5864,4.2725 L78.7044,4.2725 L78.7044,8.5375 L76.3414,8.5375 L76.3414,11.0735 L78.7044,11.0735 L78.7044,18.1915 C78.7044,22.1115 80.7224,23.2355 83.4884,23.2355 C84.3244,23.2355 85.2174,23.0625 85.7364,22.8895 L85.7364,20.3245 C85.2464,20.4975 84.6704,20.5835 84.0364,20.5835 C82.3644,20.5835 81.5864,19.8055 81.5864,18.0185 L81.5864,11.0735 L85.7364,11.0735 L85.7364,8.5375 L81.5864,8.5375 L81.5864,4.2725 Z" id="Fill-11" fill="#000000"></path>
                            <path d="M93.939,10.3587 C93.939,11.3907 94.778,12.2297 95.81,12.2307 C94.778,12.2307 93.939,13.0707 93.939,14.1027 C93.939,15.1347 94.778,15.9737 95.81,15.9737 C94.778,15.9747 93.939,16.8137 93.939,17.8457 C93.939,18.8777 94.778,19.7167 95.81,19.7177 C94.778,19.7177 93.939,20.5577 93.939,21.5897 C93.939,22.6217 94.779,23.4607 95.811,23.4607 C96.843,23.4607 97.683,22.6217 97.683,21.5897 C97.683,20.5577 96.843,19.7177 95.811,19.7177 C96.843,19.7167 97.683,18.8777 97.683,17.8457 C97.683,16.8137 96.843,15.9747 95.811,15.9737 C96.843,15.9737 97.683,15.1347 97.683,14.1027 C97.683,13.0707 96.843,12.2307 95.811,12.2307 C96.843,12.2297 97.683,11.3907 97.683,10.3587 C97.683,9.3267 96.843,8.4867 95.811,8.4867 C94.779,8.4867 93.939,9.3267 93.939,10.3587" id="Fill-13" fill="#000000"></path>
                            <path d="M93.939,6.6152 C93.939,7.6472 94.779,8.4872 95.811,8.4872 C96.843,8.4872 97.683,7.6472 97.683,6.6152 C97.683,5.5832 96.843,4.7432 95.811,4.7432 C94.779,4.7432 93.939,5.5832 93.939,6.6152" id="Fill-15" fill="#000000"></path>
                            <path d="M97.6826,2.8719 C97.6826,1.8399 96.8426,0.9999 95.8106,0.9999 C94.7786,0.9999 93.9386,1.8399 93.9386,2.8719 C93.9386,3.9039 94.7786,4.7439 95.8106,4.7439 C96.8426,4.7439 97.6826,3.9039 97.6826,2.8719" id="Fill-17" fill="#000000"></path>
                            <path d="M102.5751,15.9739 C103.6071,15.9739 104.4461,15.1339 104.4461,14.1019 C104.4461,13.0699 103.6071,12.2309 102.5751,12.2299 C103.6071,12.2299 104.4461,11.3909 104.4461,10.3589 C104.4461,9.3259 103.6061,8.4869 102.5741,8.4869 C101.5421,8.4869 100.7031,9.3259 100.7031,10.3589 C100.7031,11.3909 101.5421,12.2299 102.5741,12.2299 C101.5421,12.2309 100.7031,13.0699 100.7031,14.1019 C100.7031,15.1339 101.5421,15.9739 102.5741,15.9739 C101.5421,15.9739 100.7031,16.8139 100.7031,17.8459 C100.7031,18.8779 101.5421,19.7179 102.5741,19.7179 C103.6061,19.7179 104.4461,18.8779 104.4461,17.8459 C104.4461,16.8139 103.6071,15.9739 102.5751,15.9739" id="Fill-20" fill="#000000"></path>
                            <path d="M104.446,6.6152 C104.446,5.5832 103.606,4.7432 102.574,4.7432 C101.542,4.7432 100.703,5.5832 100.703,6.6152 C100.703,7.6472 101.542,8.4872 102.574,8.4872 C103.606,8.4872 104.446,7.6472 104.446,6.6152" id="Fill-22" fill="#000000"></path>
                            <path d="M106.3179,19.717 C105.2859,19.717 104.4459,20.557 104.4459,21.589 C104.4459,22.621 105.2859,23.461 106.3179,23.461 C107.3499,23.461 108.1899,22.621 108.1899,21.589 C108.1899,20.557 107.3499,19.717 106.3179,19.717" id="Fill-24" fill="#000000"></path>
                            <path d="M106.3179,4.7435 C107.3499,4.7435 108.1899,3.9035 108.1899,2.8715 C108.1899,1.8395 107.3499,0.9995 106.3179,0.9995 C105.2859,0.9995 104.4459,1.8395 104.4459,2.8715 C104.4459,3.9035 105.2859,4.7435 106.3179,4.7435" id="Fill-26" fill="#000000"></path>
                            <path d="M110.0611,19.717 C109.0291,19.717 108.1891,20.557 108.1891,21.589 C108.1891,22.621 109.0291,23.461 110.0611,23.461 C111.0931,23.461 111.9331,22.621 111.9331,21.589 C111.9331,20.557 111.0931,19.717 110.0611,19.717" id="Fill-29" fill="#000000"></path>
                            <path d="M110.0611,4.7435 C111.0931,4.7435 111.9331,3.9035 111.9331,2.8715 C111.9331,1.8395 111.0931,0.9995 110.0611,0.9995 C109.0291,0.9995 108.1891,1.8395 108.1891,2.8715 C108.1891,3.9035 109.0291,4.7435 110.0611,4.7435" id="Fill-31" fill="#000000"></path>
                            <path d="M113.8047,15.9739 C112.7727,15.9739 111.9327,16.8139 111.9327,17.8459 C111.9327,18.8779 112.7727,19.7179 113.8047,19.7179 C114.8367,19.7179 115.6767,18.8779 115.6767,17.8459 C115.6767,16.8139 114.8367,15.9739 113.8047,15.9739" id="Fill-34" fill="#000000"></path>
                            <path d="M113.8047,4.7435 C112.7727,4.7435 111.9327,5.5835 111.9327,6.6155 C111.9327,7.6475 112.7727,8.4865 113.8047,8.4865 C114.8367,8.4865 115.6767,7.6475 115.6767,6.6155 C115.6767,5.5835 114.8367,4.7435 113.8047,4.7435" id="Fill-36" fill="#000000"></path>
                            <path d="M121.9107,10.3587 C121.9107,9.3267 121.0707,8.4867 120.0387,8.4867 C119.0067,8.4867 118.1667,9.3267 118.1667,10.3587 C118.1667,11.3907 119.0067,12.2297 120.0377,12.2307 C119.0067,12.2307 118.1667,13.0707 118.1667,14.1027 C118.1667,15.1347 119.0067,15.9737 120.0377,15.9737 C119.0067,15.9747 118.1667,16.8137 118.1667,17.8457 C118.1667,18.8777 119.0067,19.7177 120.0387,19.7177 C121.0707,19.7177 121.9107,18.8777 121.9107,17.8457 C121.9107,16.8137 121.0707,15.9747 120.0397,15.9737 C121.0707,15.9737 121.9107,15.1347 121.9107,14.1027 C121.9107,13.0707 121.0707,12.2307 120.0397,12.2307 C121.0717,12.2297 121.9107,11.3907 121.9107,10.3587" id="Fill-38" fill="#000000"></path>
                            <path d="M120.0391,8.4868 C121.0711,8.4868 121.9111,7.6468 121.9111,6.6148 C121.9111,5.5828 121.0711,4.7438 120.0391,4.7438 C119.0071,4.7438 118.1671,5.5828 118.1671,6.6148 C118.1671,7.6468 119.0071,8.4868 120.0391,8.4868" id="Fill-40" fill="#000000"></path>
                            <path d="M123.7827,19.717 C122.7507,19.717 121.9107,20.557 121.9107,21.589 C121.9107,22.621 122.7507,23.461 123.7827,23.461 C124.8147,23.461 125.6547,22.621 125.6547,21.589 C125.6547,20.557 124.8147,19.717 123.7827,19.717" id="Fill-42" fill="#000000"></path>
                            <path d="M123.7827,4.7435 C124.8147,4.7435 125.6547,3.9035 125.6547,2.8715 C125.6547,1.8395 124.8147,0.9995 123.7827,0.9995 C122.7507,0.9995 121.9107,1.8395 121.9107,2.8715 C121.9107,3.9035 122.7507,4.7435 123.7827,4.7435" id="Fill-44" fill="#000000"></path>
                            <path d="M127.5262,19.717 C126.4942,19.717 125.6542,20.557 125.6542,21.589 C125.6542,22.621 126.4942,23.461 127.5262,23.461 C128.5582,23.461 129.3982,22.621 129.3982,21.589 C129.3982,20.557 128.5582,19.717 127.5262,19.717" id="Fill-47" fill="#000000"></path>
                            <path d="M127.5262,4.7435 C128.5582,4.7435 129.3982,3.9035 129.3982,2.8715 C129.3982,1.8395 128.5582,0.9995 127.5262,0.9995 C126.4942,0.9995 125.6542,1.8395 125.6542,2.8715 C125.6542,3.9035 126.4942,4.7435 127.5262,4.7435" id="Fill-49" fill="#000000"></path>
                            <mask id="mask-2" fill="white">
                                <use xlink:href="#path-1"></use>
                            </mask>
                            <g id="Clip-53"></g>
                            <path d="M133.1411,14.1023 C133.1411,13.0703 132.3021,12.2303 131.2701,12.2303 C132.3021,12.2303 133.1411,11.3903 133.1411,10.3583 C133.1411,9.3263 132.3011,8.4863 131.2691,8.4863 C130.2371,8.4863 129.3981,9.3263 129.3981,10.3583 C129.3981,11.3903 130.2371,12.2303 131.2691,12.2303 C130.2371,12.2303 129.3981,13.0703 129.3981,14.1023 C129.3981,15.1343 130.2371,15.9733 131.2691,15.9743 C130.2371,15.9743 129.3981,16.8133 129.3981,17.8463 C129.3981,18.8783 130.2371,19.7173 131.2691,19.7173 C132.3011,19.7173 133.1411,18.8783 133.1411,17.8463 C133.1411,16.8133 132.3021,15.9743 131.2701,15.9743 C132.3021,15.9733 133.1411,15.1343 133.1411,14.1023" id="Fill-52" fill="#000000"></path>
                            <path d="M133.141,6.6152 C133.141,5.5832 132.301,4.7432 131.269,4.7432 C130.237,4.7432 129.398,5.5832 129.398,6.6152 C129.398,7.6472 130.237,8.4872 131.269,8.4872 C132.301,8.4872 133.141,7.6472 133.141,6.6152" id="Fill-55" fill="#000000"></path>
                        </g>
                    </g>
                </g>
            </g>
        </g>
    </g>
</svg>